<svg width="137" height="28" xmlns="http://www.w3.org/2000/svg">
 <defs>
  <linearGradient y2="0%" y1="0%" x1="0%" id="a">
   <stop stop-color="#7e49c2" offset="0"/>
   <stop stop-color="#c4aaea" offset="0.5"/>
   <stop stop-color="#7e49c2" offset="1"/>
  </linearGradient>
 </defs>
 <filter id="b">
  <feGaussianBlur/>
 </filter>
 <filter id="c">
  <feGaussianBlur stdDeviation="2.236"/>
 </filter>
 <filter id="d">
  <feGaussianBlur/>
 </filter>
 <filter id="e">
  <feGaussianBlur stdDeviation="2.236"/>
 </filter>
 <g>
  <title>background</title>
  <rect fill="none" id="canvas_background" height="402" width="582" y="-1" x="-1"/>
 </g>
 <g>
  <title>Layer 1</title>
  <path id="svg_1" fill-rule="evenodd" fill="#8957c8" d="m30.285,1.252c-1.758,0 -2.069,0.563 -3.882,1.045c0.706,-1.36 2.099,-2.297 3.722,-2.297c1.539,0 2.871,0.842 3.608,2.086c-0.913,-0.485 -2.05,-0.834 -3.448,-0.834zm-22.081,1.008c0.712,-1.339 2.093,-2.26 3.702,-2.26c1.595,0 2.967,0.906 3.684,2.226c-1.596,-0.464 -1.952,-0.974 -3.626,-0.974c-1.562,0 -2.798,0.435 -3.76,1.008z"/>
  <path id="svg_2" fill="url(#a)" d="m30.285,1.252c-1.758,0 -2.069,0.563 -3.882,1.045c0.706,-1.36 2.099,-2.297 3.722,-2.297c1.539,0 2.871,0.842 3.608,2.086c-0.913,-0.485 -2.05,-0.834 -3.448,-0.834zm-22.081,1.008c0.712,-1.339 2.093,-2.26 3.702,-2.26c1.595,0 2.967,0.906 3.684,2.226c-1.596,-0.464 -1.952,-0.974 -3.626,-0.974c-1.562,0 -2.798,0.435 -3.76,1.008z"/>
  <path id="svg_3" fill-rule="evenodd" fill="#704ad5" d="m38.029,13.695c-1.181,-1.933 -3.289,-3.226 -5.701,-3.226c-3.376,0 -6.161,2.527 -6.627,5.812l-4.674,0.98l0,-0.027l-4.702,-0.984c-0.48,-3.27 -3.264,-5.781 -6.638,-5.781c-2.405,0 -4.51,1.28 -5.697,3.199l-2.029,-0.425l3.472,-7.309s1.804,-3.83 6.462,-3.83c2.416,0 2.076,1.063 6.728,1.51c0,2.421 2.404,2.535 2.404,2.535l0,0.008s2.403,-0.115 2.403,-2.54c4.653,-0.448 4.312,-1.513 6.729,-1.513c4.658,0 6.462,3.836 6.462,3.836l3.471,7.323l-2.063,0.432zm-16.982,-1.508c-0.941,0 -1.703,0.77 -1.703,1.719s0.762,1.719 1.703,1.719c0.94,0 1.703,-0.77 1.703,-1.719s-0.763,-1.719 -1.703,-1.719z"/>
  <path id="svg_4" fill="url(#a)" d="m38.029,13.695c-1.181,-1.933 -3.289,-3.226 -5.701,-3.226c-3.376,0 -6.161,2.527 -6.627,5.812l-4.674,0.98l0,-0.027l-4.702,-0.984c-0.48,-3.27 -3.264,-5.781 -6.638,-5.781c-2.405,0 -4.51,1.28 -5.697,3.199l-2.029,-0.425l3.472,-7.309s1.804,-3.83 6.462,-3.83c2.416,0 2.076,1.063 6.728,1.51c0,2.421 2.404,2.535 2.404,2.535l0,0.008s2.403,-0.115 2.403,-2.54c4.653,-0.448 4.312,-1.513 6.729,-1.513c4.658,0 6.462,3.836 6.462,3.836l3.471,7.323l-2.063,0.432zm-16.982,-1.508c-0.941,0 -1.703,0.77 -1.703,1.719s0.762,1.719 1.703,1.719c0.94,0 1.703,-0.77 1.703,-1.719s-0.763,-1.719 -1.703,-1.719z"/>
  <g id="svg_5" fill-rule="evenodd">
   <path id="svg_6" fill="#a47ed8" d="m23.964,18.124s-1.477,-0.215 -2.937,-0.215c-1.477,0 -2.938,0.215 -2.938,0.215l-2.67,-7.443s2.8,-0.486 5.608,-0.486c2.799,0 5.607,0.486 5.607,0.486l-2.67,7.443zm-2.917,-5.937c-0.941,0 -1.703,0.77 -1.703,1.719s0.762,1.719 1.703,1.719c0.94,0 1.703,-0.77 1.703,-1.719s-0.763,-1.719 -1.703,-1.719z"/>
   <path id="svg_7" fill="#b89ae3" d="m21.031,16.406c-1.346,0 -2.437,-1.112 -2.437,-2.484s1.091,-2.484 2.437,-2.484s2.438,1.112 2.438,2.484s-1.092,2.484 -2.438,2.484zm0.016,-4.219c-0.941,0 -1.703,0.77 -1.703,1.719s0.762,1.719 1.703,1.719c0.94,0 1.703,-0.77 1.703,-1.719s-0.763,-1.719 -1.703,-1.719z"/>
   <path id="svg_8" fill="#9d74d4" d="m16.327,4.531l0,4.801l9.399,0l0,-4.801l-1.228,0.27s-0.976,2.481 -3.471,2.481c-2.496,0 -3.472,-2.481 -3.472,-2.481l-1.228,-0.27z"/>
   <path id="svg_9" filter="url(#b)" fill="#8958c8" d="m32.328,26c-4.789,0 -8.672,-3.925 -8.672,-8.766s3.883,-8.765 8.672,-8.765s8.672,3.924 8.672,8.765s-3.883,8.766 -8.672,8.766zm0,-15.531c-3.702,0 -6.703,3.036 -6.703,6.781s3.001,6.781 6.703,6.781s6.703,-3.036 6.703,-6.781s-3.001,-6.781 -6.703,-6.781z"/>
   <path id="svg_10" filter="url(#c)" fill="#80d6a1" d="m32.328,22.125c-2.666,0 -4.828,-2.183 -4.828,-4.875c0,-0.608 0.124,-1.184 0.325,-1.721c0.235,0.299 0.581,0.502 0.987,0.502a1.29,1.29 0 0 0 1.282,-1.297c0,-0.56 -0.356,-1.027 -0.848,-1.208c0.838,-0.708 1.904,-1.151 3.082,-1.151c2.667,0 4.828,2.183 4.828,4.875s-2.161,4.875 -4.828,4.875zm0,-5.781a0.89,0.89 0 1 0 -0.001,1.78a0.89,0.89 0 0 0 0.001,-1.78z"/>
   <path id="svg_11" filter="url(#d)" fill="#8958c8" d="m9.672,26c-4.789,0 -8.672,-3.925 -8.672,-8.766s3.883,-8.765 8.672,-8.765s8.672,3.924 8.672,8.765s-3.883,8.766 -8.672,8.766zm0.015,-15.531c-3.71,0 -6.718,3.036 -6.718,6.781s3.008,6.781 6.718,6.781c3.711,0 6.719,-3.036 6.719,-6.781s-3.008,-6.781 -6.719,-6.781z"/>
   <path id="svg_12" filter="url(#e)" fill="#80d6a1" d="m9.687,22.125c-2.675,0 -4.843,-2.183 -4.843,-4.875c0,-0.619 0.126,-1.207 0.335,-1.752c0.234,0.316 0.589,0.533 1.008,0.533a1.29,1.29 0 0 0 0.414,-2.509c0.84,-0.706 1.907,-1.147 3.086,-1.147c2.676,0 4.844,2.183 4.844,4.875s-2.168,4.875 -4.844,4.875zm0,-5.781a0.882,0.882 0 0 0 -0.875,0.89c0,0.492 0.392,0.891 0.875,0.891a0.883,0.883 0 0 0 0.875,-0.891a0.882,0.882 0 0 0 -0.875,-0.89z"/>
  </g>
  <text stroke="null" transform="matrix(0.5492655305386395,0,0,0.5843084278208933,22.465144220212945,6.67647537230142) " xml:space="preserve" text-anchor="start" font-family="'Times New Roman', Times, serif" font-size="24" id="svg_15" y="20.491331" x="67.739136" stroke-width="0" fill="#D3BEE7">MH-CHAIN</text>
 </g>
</svg>